<svg width="400" height="400" viewBox="0 0 400 400" fill="none" xmlns="http://www.w3.org/2000/svg">
<rect width="400" height="400" fill="white"/>
<circle cx="200" cy="200" r="147" stroke="black" stroke-width="6"/>
<circle cx="200" cy="200" r="145" fill="black" stroke="white" stroke-width="2"/>
<mask id="mask0_7_491" style="mask-type:alpha" maskUnits="userSpaceOnUse" x="61" y="61" width="278" height="278">
<rect x="198" y="61" width="4" height="38" fill="#F2F2F2"/>
<rect x="198" y="301" width="4" height="38" fill="#F2F2F2"/>
<rect x="61" y="202" width="4" height="38" transform="rotate(-90 61 202)" fill="#F2F2F2"/>
<rect x="301" y="202" width="4" height="38" transform="rotate(-90 301 202)" fill="#F2F2F2"/>
<rect x="132.232" y="321.378" width="4" height="38" transform="rotate(-150 132.232 321.378)" fill="#F2F2F2"/>
<rect x="252.232" y="113.531" width="4" height="38" transform="rotate(-150 252.232 113.531)" fill="#F2F2F2"/>
<rect x="80.6226" y="271.232" width="4" height="38" transform="rotate(-120 80.6226 271.232)" fill="#F2F2F2"/>
<rect x="288.469" y="151.232" width="4" height="38" transform="rotate(-120 288.469 151.232)" fill="#F2F2F2"/>
<rect x="78.6226" y="132.232" width="4" height="38" transform="rotate(-60 78.6226 132.232)" fill="#F2F2F2"/>
<rect x="286.469" y="252.232" width="4" height="38" transform="rotate(-60 286.469 252.232)" fill="#F2F2F2"/>
<rect x="271.232" y="319.378" width="4" height="38" transform="rotate(150 271.232 319.378)" fill="#F2F2F2"/>
<rect x="151.232" y="111.531" width="4" height="38" transform="rotate(150 151.232 111.531)" fill="#F2F2F2"/>
</mask>
<g mask="url(#mask0_7_491)">
<rect x="13" y="9" width="387" height="359" fill="#BFBFBF"/>
</g>
<rect x="197" y="200" width="130" height="6" transform="rotate(-90 197 200)" fill="url(#paint0_linear_7_491)"/>
<rect x="203" y="132" width="68" height="6" transform="rotate(90 203 132)" fill="url(#paint1_linear_7_491)"/>
<circle cx="200" cy="200" r="5" fill="#E5512E"/>
<defs>
<linearGradient id="paint0_linear_7_491" x1="327" y1="200" x2="189" y2="206" gradientUnits="userSpaceOnUse">
<stop stop-color="#7C16FD"/>
<stop offset="1" stop-color="#1F47AE"/>
</linearGradient>
<linearGradient id="paint1_linear_7_491" x1="202.057" y1="133.232" x2="273.828" y2="135" gradientUnits="userSpaceOnUse">
<stop stop-color="#E2963D"/>
<stop offset="1" stop-color="#E6422B"/>
</linearGradient>
</defs>
</svg>
